<svg width="22" height="25" viewBox="0 0 22 25" fill="none" xmlns="http://www.w3.org/2000/svg">
    <path
        d="M17.9231 8.33317H20.2564C20.5658 8.33317 20.8626 8.45609 21.0814 8.67488C21.3002 8.89367 21.4231 9.19042 21.4231 9.49984V23.4998C21.4231 23.8093 21.3002 24.106 21.0814 24.3248C20.8626 24.5436 20.5658 24.6665 20.2564 24.6665H1.58976C1.28034 24.6665 0.983597 24.5436 0.764804 24.3248C0.546012 24.106 0.423096 23.8093 0.423096 23.4998V9.49984C0.423096 9.19042 0.546012 8.89367 0.764804 8.67488C0.983597 8.45609 1.28034 8.33317 1.58976 8.33317H3.9231V7.1665C3.9231 5.30999 4.66059 3.52951 5.97335 2.21676C7.2861 0.904002 9.06658 0.166504 10.9231 0.166504C12.7796 0.166504 14.5601 0.904002 15.8728 2.21676C17.1856 3.52951 17.9231 5.30999 17.9231 7.1665V8.33317ZM2.75643 10.6665V22.3332H19.0898V10.6665H2.75643ZM9.75643 15.3332H12.0898V17.6665H9.75643V15.3332ZM5.08976 15.3332H7.4231V17.6665H5.08976V15.3332ZM14.4231 15.3332H16.7564V17.6665H14.4231V15.3332ZM15.5898 8.33317V7.1665C15.5898 5.92883 15.0981 4.74184 14.2229 3.86667C13.3478 2.9915 12.1608 2.49984 10.9231 2.49984C9.68542 2.49984 8.49843 2.9915 7.62326 3.86667C6.74809 4.74184 6.25643 5.92883 6.25643 7.1665V8.33317H15.5898Z"
        fill="black" />
</svg>
    