<!-- <svg width="24" height="28" viewBox="0 0 24 28" fill="none" xmlns="http://www.w3.org/2000/svg">
<path d="M5.66666 17V8.768C5.66666 7 7.66666 5 11.6667 5C15.6667 5 17.6667 7 17.6667 8.768V17M8.99999 1H14.3333M3.66666 21V17H19.6667V21H3.66666Z" stroke="black" stroke-width="2" stroke-linecap="round" stroke-linejoin="round"/>
<path d="M1 9V17H22.3333V9M7 27H16.3333M11.6667 21V27M11.6667 1V5" stroke="black" stroke-width="2" stroke-linecap="round" stroke-linejoin="round"/>
</svg> -->
<svg width="26" height="17" viewBox="0 0 26 17" fill="none" xmlns="http://www.w3.org/2000/svg">
<path d="M7.98568 2.03573C7.63425 2.03573 7.29675 2.17502 7.04604 2.42145L4.17997 5.25002H8.98211C10.4264 5.25002 11.6285 6.2893 11.8803 7.66073H14.1196C14.2448 6.98355 14.6033 6.37161 15.1327 5.93122C15.6622 5.49083 16.3292 5.24981 17.0178 5.25002H21.82L18.9539 2.42145C18.7032 2.17422 18.3653 2.03565 18.0132 2.03573H16.481C16.2679 2.03573 16.0635 1.95107 15.9128 1.80037C15.7621 1.64967 15.6775 1.44528 15.6775 1.23216C15.6775 1.01904 15.7621 0.814648 15.9128 0.663949C16.0635 0.513251 16.2679 0.428589 16.481 0.428589H18.0132C18.7881 0.428591 19.5317 0.733842 20.0832 1.27823L24.8189 5.95073C24.9303 6.04609 25.0343 6.14895 25.1307 6.2593L25.1575 6.28502L25.1553 6.28716C25.5925 6.80145 25.8571 7.46787 25.8571 8.19645V12.4822C25.8571 13.5478 25.4338 14.5697 24.6803 15.3232C23.9268 16.0767 22.9049 16.5 21.8393 16.5H18.0893C17.0237 16.5 16.0017 16.0767 15.2482 15.3232C14.4947 14.5697 14.0714 13.5478 14.0714 12.4822V9.26787H11.9285V12.4822C11.9285 13.5478 11.5052 14.5697 10.7517 15.3232C9.99824 16.0767 8.97628 16.5 7.91068 16.5H4.16068C3.09508 16.5 2.07312 16.0767 1.31963 15.3232C0.566131 14.5697 0.142822 13.5478 0.142822 12.4822V8.19645C0.142822 7.46787 0.407465 6.80145 0.844608 6.28716L0.842465 6.28502L0.871394 6.25716C0.966751 6.14787 1.06961 6.04609 1.17997 5.95287L5.91675 1.27823C6.46818 0.733842 7.21187 0.428591 7.98675 0.428589H9.51782C9.73094 0.428589 9.93533 0.513251 10.086 0.663949C10.2367 0.814648 10.3214 1.01904 10.3214 1.23216C10.3214 1.44528 10.2367 1.64967 10.086 1.80037C9.93533 1.95107 9.73094 2.03573 9.51782 2.03573H7.98568Z" fill="black"/>
</svg>
