<!-- <svg width="29" height="24" viewBox="0 0 29 24" fill="none" xmlns="http://www.w3.org/2000/svg">
<path d="M28.4336 22.6308L26.5028 15.8298V1.02128C26.5028 0.456383 26.0464 0 25.4815 0H3.0134C2.44851 0 1.99212 0.456383 1.99212 1.02128V15.8298L0.0612723 22.6308C-0.178089 23.2979 0.3134 24 1.02191 24H27.473C28.1815 24 28.673 23.2979 28.4336 22.6308ZM4.29 2.29787H24.2049V14.9043H4.29V2.29787ZM11.5762 21.7021L11.8347 20.5213H16.6315L16.89 21.7021H11.5762ZM18.7251 21.7021L18.1155 18.9351C18.09 18.817 17.9847 18.734 17.8666 18.734H10.6028C10.4815 18.734 10.3794 18.817 10.3538 18.9351L9.74425 21.7021H2.7134L4.0634 16.9468H24.4315L25.7815 21.7021H18.7251Z" fill="black"/>
</svg> -->
<svg width="13" height="33" viewBox="0 0 13 33" fill="none" xmlns="http://www.w3.org/2000/svg">
<path d="M4.0625 30.875V21.125H1.625C1.16459 21.125 0.77838 20.969 0.46638 20.657C0.15438 20.345 -0.00107771 19.9593 5.62285e-06 19.5V11.375C5.62285e-06 10.4812 0.318506 9.71587 0.955506 9.07887C1.59251 8.44187 2.35734 8.12391 3.25 8.125H9.75C10.6437 8.125 11.4091 8.4435 12.0461 9.0805C12.6831 9.7175 13.0011 10.4823 13 11.375V19.5C13 19.9604 12.844 20.3466 12.532 20.6586C12.22 20.9706 11.8343 21.1261 11.375 21.125H8.9375V30.875C8.9375 31.3354 8.7815 31.7216 8.4695 32.0336C8.1575 32.3456 7.77183 32.5011 7.3125 32.5H5.6875C5.22709 32.5 4.84088 32.344 4.52888 32.032C4.21688 31.72 4.06142 31.3343 4.0625 30.875ZM6.5 6.5C5.60625 6.5 4.84088 6.1815 4.20388 5.5445C3.56688 4.9075 3.24892 4.14267 3.25 3.25C3.25 2.35625 3.5685 1.59088 4.2055 0.953877C4.8425 0.316877 5.60734 -0.00108057 6.5 2.75891e-06C7.39375 2.75891e-06 8.15913 0.318503 8.79613 0.955502C9.43313 1.5925 9.75108 2.35733 9.75 3.25C9.75 4.14375 9.4315 4.90912 8.7945 5.54612C8.1575 6.18312 7.39267 6.50108 6.5 6.5Z" fill="black"/>
</svg>
