<!-- <svg width="33" height="20" viewBox="0 0 33 20" fill="none" xmlns="http://www.w3.org/2000/svg">
<path d="M0 0V20H9.02324V0H0ZM6.55637 18.3303C6.39884 18.3303 6.24485 18.2836 6.11388 18.1961C5.9829 18.1086 5.88081 17.9842 5.82053 17.8386C5.76025 17.6931 5.74447 17.533 5.77521 17.3785C5.80594 17.224 5.88179 17.0821 5.99318 16.9707C6.10457 16.8593 6.24649 16.7834 6.40099 16.7527C6.55549 16.722 6.71563 16.7377 6.86116 16.798C7.0067 16.8583 7.13109 16.9604 7.21861 17.0914C7.30612 17.2223 7.35284 17.3763 7.35284 17.5339C7.35284 17.7451 7.26892 17.9477 7.11956 18.097C6.97019 18.2464 6.7676 18.3303 6.55637 18.3303ZM7.85968 4.63399H1.15198V3.47549H7.85895V4.63399H7.85968ZM7.85968 2.31699H1.15198V1.1585H7.85895V2.31699H7.85968ZM18.9378 15.9663H24.2307V18.8415H27.2529V20H15.917V18.8415H18.9393V15.9663H18.9378ZM10.3939 0V14.8078H32.7782V0H10.3932H10.3939ZM31.6197 13.6493H11.5517V1.1585H31.6197V13.6493Z" fill="black"/>
</svg> -->
<svg width="15" height="34" viewBox="0 0 15 34" fill="none" xmlns="http://www.w3.org/2000/svg">
<path d="M6.67218 33.1126C6.20309 33.1126 5.8096 32.9536 5.49172 32.6358C5.17384 32.3179 5.01545 31.9249 5.01656 31.457V23.1788H1.66391C1.08444 23.1788 0.629139 22.9371 0.298013 22.4536C-0.0331127 21.9702 -0.0883002 21.4531 0.13245 20.9023L4.27152 10.4305C4.54746 9.76822 4.97516 9.24393 5.55463 8.85762C6.1341 8.4713 6.78256 8.27815 7.5 8.27815C8.21744 8.27815 8.86589 8.4713 9.44536 8.85762C10.0248 9.24393 10.4525 9.76822 10.7285 10.4305L14.8675 20.9023C15.0883 21.4542 15.0331 21.9719 14.702 22.4553C14.3709 22.9387 13.9156 23.1799 13.3361 23.1788H9.98344V31.457C9.98344 31.9261 9.8245 32.3195 9.50662 32.6374C9.18874 32.9553 8.7958 33.1137 8.32781 33.1126H6.67218ZM7.5 6.62252C6.5894 6.62252 5.8096 6.29802 5.16059 5.64901C4.51159 5 4.18764 4.22075 4.18874 3.31126C4.18874 2.40066 4.51324 1.62086 5.16225 0.971857C5.81126 0.32285 6.59051 -0.00110094 7.5 2.81092e-06C8.41059 2.81092e-06 9.1904 0.324506 9.8394 0.973513C10.4884 1.62252 10.8124 2.40177 10.8113 3.31126C10.8113 4.22186 10.4868 5.00166 9.83775 5.65066C9.18874 6.29967 8.40949 6.62362 7.5 6.62252Z" fill="black"/>
</svg>
